<?xml version="1.0" encoding="iso-8859-1"?>
<!-- Uploaded to: SVG Repo, www.svgrepo.com, Generator: SVG Repo Mixer Tools -->
<svg fill="#000000" height="800px" width="800px" version="1.1" id="Capa_1" xmlns="http://www.w3.org/2000/svg" xmlns:xlink="http://www.w3.org/1999/xlink" 
	 viewBox="0 0 58 58" xml:space="preserve">
<g>
	<g>
		<path d="M57,3V2.762C57,1.239,55.761,0,54.239,0h-6.478C46.239,0,45,1.239,45,2.762V3c0,1.304,0.836,2.416,2,2.829v9.342
			c-1.164,0.413-2,1.525-2,2.829v0.446C45,19.854,46.146,21,47.554,21H50v12c0,8.344-4.467,15.664-11.134,19.695
			C41.426,49.858,43,46.114,43,42c0-8.822-7.178-16-16-16s-16,7.178-16,16c0,2.893,0.783,5.601,2.131,7.945
			C9.959,46.548,8,42.004,8,37V21h2.446C11.854,21,13,19.854,13,18.446V18c0-1.304-0.836-2.416-2-2.829V5.829
			C12.164,5.416,13,4.304,13,3V2.762C13,1.239,11.761,0,10.239,0H3.761C2.239,0,1,1.239,1,2.762V3c0,1.304,0.836,2.416,2,2.829
			v9.342C1.836,15.584,1,16.696,1,18v0.446C1,19.854,2.146,21,3.554,21H6v17h0.023C6.547,49.117,15.755,58,27,58
			c13.785,0,25-11.215,25-25V21h2.446C55.854,21,57,19.854,57,18.446V18c0-1.304-0.836-2.416-2-2.829V5.829
			C56.164,5.416,57,4.304,57,3z M3.554,19C3.249,19,3,18.752,3,18.446V18c0-0.552,0.449-1,1-1h1v-2c0.552,0,1-0.448,1-1
			s-0.448-1-1-1v-2c0.552,0,1-0.448,1-1S5.552,9,5,9V7c0.552,0,1-0.448,1-1S5.552,5,5,5V4H4C3.449,4,3,3.552,3,3V2.762
			C3,2.342,3.341,2,3.761,2h6.478C10.659,2,11,2.342,11,2.762V3c0,0.552-0.449,1-1,1H9v1C8.448,5,8,5.448,8,6s0.448,1,1,1v2
			c-0.552,0-1,0.448-1,1s0.448,1,1,1v2c-0.552,0-1,0.448-1,1s0.448,1,1,1v2h1c0.551,0,1,0.448,1,1v0.446
			C11,18.752,10.751,19,10.446,19H3.554z M13,42c0-7.72,6.28-14,14-14s14,6.28,14,14c0,2.137-0.496,4.156-1.356,5.97
			C39.869,47.015,40,46.023,40,45c0-7.168-5.832-13-13-13s-13,5.832-13,13c0,1.023,0.131,2.015,0.356,2.97
			C13.496,46.156,13,44.137,13,42z M27,56c-0.379,0-0.749-0.035-1.123-0.057C20.337,55.379,16,50.686,16,45c0-6.065,4.935-11,11-11
			s11,4.935,11,11S33.065,56,27,56z M53,7v2c-0.552,0-1,0.448-1,1s0.448,1,1,1v2c-0.552,0-1,0.448-1,1s0.448,1,1,1v2h1
			c0.551,0,1,0.448,1,1v0.446C55,18.752,54.751,19,54.446,19h-6.893C47.249,19,47,18.752,47,18.446V18c0-0.552,0.449-1,1-1h1v-2
			c0.552,0,1-0.448,1-1s-0.448-1-1-1v-2c0.552,0,1-0.448,1-1s-0.448-1-1-1V7c0.552,0,1-0.448,1-1s-0.448-1-1-1V4h-1
			c-0.551,0-1-0.448-1-1V2.762C47,2.342,47.341,2,47.761,2h6.478C54.659,2,55,2.342,55,2.762V3c0,0.552-0.449,1-1,1h-1v1
			c-0.552,0-1,0.448-1,1S52.448,7,53,7z"/>
		<circle cx="51" cy="8" r="1"/>
		<circle cx="51" cy="12" r="1"/>
		<circle cx="51" cy="16" r="1"/>
		<circle cx="7" cy="8" r="1"/>
		<circle cx="7" cy="12" r="1"/>
		<circle cx="7" cy="16" r="1"/>
	</g>
</g>
</svg>